<?xml version="1.0" encoding="UTF-8" standalone="no"?>
<!-- Generator: Adobe Illustrator 23.0.2, SVG Export Plug-In . SVG Version: 6.00 Build 0)  -->

<svg
   xmlns:dc="http://purl.org/dc/elements/1.1/"
   xmlns:cc="http://creativecommons.org/ns#"
   xmlns:rdf="http://www.w3.org/1999/02/22-rdf-syntax-ns#"
   xmlns:svg="http://www.w3.org/2000/svg"
   xmlns="http://www.w3.org/2000/svg"
   xmlns:sodipodi="http://sodipodi.sourceforge.net/DTD/sodipodi-0.dtd"
   xmlns:inkscape="http://www.inkscape.org/namespaces/inkscape"
   version="1.1"
   id="Calque_1"
   x="0px"
   y="0px"
   viewBox="0 0 1920 1080"
   style="enable-background:new 0 0 1920 1080;"
   xml:space="preserve"
   sodipodi:docname="tblue1.svg"
   inkscape:version="0.92.4 (5da689c313, 2019-01-14)"><metadata
   id="metadata5118"><rdf:RDF><cc:Work
       rdf:about=""><dc:format>image/svg+xml</dc:format><dc:type
         rdf:resource="http://purl.org/dc/dcmitype/StillImage" /></cc:Work></rdf:RDF></metadata><defs
   id="defs5116" /><sodipodi:namedview
   pagecolor="#ffffff"
   bordercolor="#666666"
   borderopacity="1"
   objecttolerance="10"
   gridtolerance="10"
   guidetolerance="10"
   inkscape:pageopacity="0"
   inkscape:pageshadow="2"
   inkscape:window-width="1920"
   inkscape:window-height="1051"
   id="namedview5114"
   showgrid="false"
   inkscape:zoom="0.21851852"
   inkscape:cx="209.49153"
   inkscape:cy="540"
   inkscape:window-x="-9"
   inkscape:window-y="-9"
   inkscape:window-maximized="1"
   inkscape:current-layer="g5111" />
<style
   type="text/css"
   id="style5105">
	.st0{fill:#00ADD4;}
	.st1{fill:#F0D4C2;}
</style>
<g
   id="g5111"
   transform="matrix(1.0126347,0,0,0.16503787,-46.695456,473.44964)">
	<path
   class="st0"
   d="m 1884.5713,380.12131 c -167.4858,19.40024 -335.0737,30.09017 -502.4575,59.3885 -331.5014,58.20071 -663.10496,83.93573 -993.99405,236.76208 -33.0685,15.441 -64.50398,2.77147 -97.06216,-67.30694 C 224.00203,464.45296 153.06806,433.17504 83.052666,381.30909 c -12.859971,-24.94315 -11.737275,-47.5108 0,-68.49473 C 163.7847,245.50741 245.63944,215.41726 322.49307,18.247489 332.08702,-6.2997524 344.23255,3.9942455 355.15332,8.7453351 673.18244,147.71438 991.82394,196.80887 1310.3634,237.19304 c 178.6107,22.56762 357.3234,43.94748 535.9342,66.91101 9.9001,1.18778 19.8002,8.71031 29.7004,13.4614 5.7155,5.54293 9.9001,19.00431 8.5733,62.55586 z"
   id="path5107"
   inkscape:connector-curvature="0"
   style="fill:#c67412;stroke-width:2.01020432;fill-opacity:1" />
	<path
   class="st1"
   d="m 959.9,215.9 c 0.1,0.1 0.1,0.3 0,0.4"
   id="path5109"
   inkscape:connector-curvature="0"
   style="fill:#f0d4c2" />
</g>
</svg>