<svg xmlns="http://www.w3.org/2000/svg" viewBox="0 0 163.05 9.79"><defs><style>.cls-1{fill:#c57412;}</style></defs><g id="Calque_2" data-name="Calque 2"><g id="Calque_1-2" data-name="Calque 1"><path class="cls-1" d="M.29,4.49C7.58,3.59,15,3.11,21.89.34c1.69-.68,3.56-.15,5.33,0C45,1.66,62.77,2.25,80.56,2.67c26.85.62,54.8.8,81.64,1.4,1,.76,1.18.67.08,1.43-17.2.31-34.41.51-51.61,1C82.84,7.17,55,7.51,27.23,9.75c-4.92.39-9.06-1.93-13.65-2.46C9.14,6.78,4.72,6.08.29,5.46A.55.55,0,0,1,.29,4.49Z"/></g></g></svg>