<?xml version="1.0" encoding="UTF-8" standalone="no"?>
<svg
   xmlns:dc="http://purl.org/dc/elements/1.1/"
   xmlns:cc="http://creativecommons.org/ns#"
   xmlns:rdf="http://www.w3.org/1999/02/22-rdf-syntax-ns#"
   xmlns:svg="http://www.w3.org/2000/svg"
   xmlns="http://www.w3.org/2000/svg"
   xmlns:sodipodi="http://sodipodi.sourceforge.net/DTD/sodipodi-0.dtd"
   xmlns:inkscape="http://www.inkscape.org/namespaces/inkscape"
   inkscape:version="1.0beta2 (unknown)"
   sodipodi:docname="t-vert.svg"
   viewBox="0 0 540 96"
   height="96"
   width="540"
   id="svg62"
   version="1.1">
  <metadata
     id="metadata68">
    <rdf:RDF>
      <cc:Work
         rdf:about="">
        <dc:format>image/svg+xml</dc:format>
        <dc:type
           rdf:resource="http://purl.org/dc/dcmitype/StillImage" />
        <dc:title></dc:title>
      </cc:Work>
    </rdf:RDF>
  </metadata>
  <defs
     id="defs66" />
  <sodipodi:namedview
     inkscape:snap-global="true"
     inkscape:current-layer="g70"
     inkscape:window-maximized="1"
     inkscape:window-y="0"
     inkscape:window-x="0"
     inkscape:cy="76.823997"
     inkscape:cx="293.17036"
     inkscape:zoom="1.8947843"
     showgrid="false"
     id="namedview64"
     inkscape:window-height="1027"
     inkscape:window-width="1920"
     inkscape:pageshadow="2"
     inkscape:pageopacity="0"
     guidetolerance="10"
     gridtolerance="10"
     objecttolerance="10"
     borderopacity="1"
     inkscape:document-rotation="0"
     bordercolor="#666666"
     pagecolor="#ffffff" />
  <g
     id="g70"
     inkscape:label="Image"
     inkscape:groupmode="layer">
    <path
       sodipodi:nodetypes="ccccsccccsssssssssscssscsccccscccccccccccssssscccc"
       inkscape:connector-curvature="0"
       id="path106"
       d="m 14.598841,42.61126 c 3.51201,-0.196446 4.14805,0.399881 8.46865,0 0.11737,-0.01086 3.3749,-0.447456 3.82818,-0.72873 1.30857,-0.812025 0.98315,-1.420182 2.09709,-1.823382 0.15754,-0.05702 0.67015,0 0.50261,0 h -0.50261 37.380606 12.629305 c 27.735108,1.770233 46.531028,-1.006755 70.980938,-0.75743 h 28.03514 c 3.23427,0 6.47885,0.257918 9.70283,0 1.26455,-0.101164 2.47196,-0.598148 3.73186,-0.746372 1.60049,-0.188293 3.22305,0 4.83458,0 h 13.76121 c 3.27484,0 6.78246,-0.32855 10.04702,0 1.33649,0.134506 4.00158,0.501989 5.09965,0.741714 2.37368,0.518212 4.64529,1.869051 7.04673,2.230141 2.818,0.423726 5.61316,1.109458 8.50964,1.407442 4.15168,0.427118 8.59436,0 12.77273,0 h 25.64412 25.03698 c 3.28668,0 7.16597,0.515624 10.41559,0 5.08538,-0.806908 1.43923,-0.814204 6.63024,-1.119558 3.63657,-0.213915 7.22695,0.05965 10.82221,-0.360749 2.43831,-0.285119 6.9918,-1.117007 8.83483,-1.117007 h 8.72436 1.68166 c 21.34364,-1.329814 26.68828,-2.102393 32.90619,-2.023902 17.50567,1.716162 36.80132,1.043075 52.36984,1.884846 8.78163,0.468504 17.75653,0 26.53697,0 h 36.63791 c 8.73165,1.09217 33.97217,-4.218921 33.93345,4.85079 0,1.114512 -0.35584,3.52637 -1.0674,4.468551 -0.36587,0.48446 -1.02363,0.667755 -1.45671,1.093204 -1.90453,1.870967 -2.15167,2.447839 -3.93749,3.340748 -1.37029,0.466414 -2.72997,0.965277 -4.11088,1.399242 -30.2242,-0.797934 -61.30151,-3.428197 -89.90495,-0.87794 -12.92441,0.0128 -31.56604,-2.140817 -33.89159,-2.268739 -12.48203,1.422976 -21.72834,-1.390645 -33.70754,0.287585 -11.37369,-0.509512 -22.83968,2.538443 -33.0039,2.575335 -17.82862,-0.02216 -35.00368,2.813649 -52.21852,0.481811 -1.40337,-0.131991 -4.74502,0.09441 -6.15329,0.03405 -8.11867,-0.347974 -15.55038,-3.019032 -23.65354,-3.54087 -5.39084,-0.347167 -10.97489,0 -16.37658,0 -4.06779,0 -8.49888,-0.441062 -12.54811,0 -2.68421,0.292378 -5.29281,1.215066 -8.01388,1.473292 -2.11875,0.201068 -4.41302,0 -6.53084,0 -26.66429,-7.907989 -39.90301,-5.69845 -54.20883,-2.990453 -3.23916,0.70475 -133.671909,0.01082 -137.098439,0.01082 -0.37175,-2.539193 0.64183,-5.799384 -1.21802,-7.924439 z"
       style="fill:#00b600;stroke:none;stroke-width:1px;stroke-linecap:butt;stroke-linejoin:miter;stroke-opacity:1;fill-opacity:1" />
  </g>
</svg>
